name analog
datacolumns 19
datarows 55
range 0.0 0.027
endheader
time	ground_force_vx	ground_force_vy	ground_force_vz	ground_force_px	ground_force_py	ground_force_pz	l_ground_force_vx	l_ground_force_vy	l_ground_force_vz	l_ground_force_px	l_ground_force_py	l_ground_force_pz	ground_torque_x	ground_torque_y	ground_torque_z	l_ground_torque_x	l_ground_torque_y	l_ground_torque_z
0.0	-0.0	-0.0	-0.0	-3.7865748405456543	33.29832077026367	-485.9627685546875	-5.108545780181885	-24.02961158752441	-393.3132629394531	-0.0	-0.0	-0.0	-0.0	-0.0	-0.0	112840.5	-4691.93359375	-3437.473388671875
0.0005	-0.0	-0.0	-0.0	-3.5322282314300537	33.15650939941406	-487.4283142089844	-4.928228855133057	-24.288463592529297	-392.6398010253906	-0.0	-0.0	-0.0	-0.0	-0.0	-0.0	112533.4921875	-4277.05615234375	-3480.36669921875
0.001	-0.0	-0.0	-0.0	-3.7433931827545166	33.07427215576172	-487.5990295410156	-5.099235534667969	-23.974454879760746	-392.2782897949219	-0.0	-0.0	-0.0	-0.0	-0.0	-0.0	112352.1015625	-4230.65673828125	-3559.48828125
0.0015	-0.0	-0.0	-0.0	-3.804043054580689	33.02461242675781	-487.2473449707031	-5.283420562744141	-23.755128860473636	-390.364990234375	-0.0	-0.0	-0.0	-0.0	-0.0	-0.0	112069.6171875	-4213.6083984375	-3628.80419921875
0.002	-0.0	-0.0	-0.0	-3.921546459197998	32.9708251953125	-488.0799865722656	-5.588779449462891	-23.758533477783203	-389.416015625	-0.0	-0.0	-0.0	-0.0	-0.0	-0.0	111672.9921875	-3993.63720703125	-3719.196533203125
0.0025	-0.0	-0.0	-0.0	-3.4251084327697754	33.41631317138672	-489.7366333007813	-5.712801456451416	-23.486364364624023	-388.2423706054688	-0.0	-0.0	-0.0	-0.0	-0.0	-0.0	111355.9609375	-3972.947265625	-3728.63134765625
0.003	-0.0	-0.0	-0.0	-3.611051082611084	34.132999420166016	-489.8449401855469	-6.021030426025391	-23.758533477783203	-386.8599853515625	-0.0	-0.0	-0.0	-0.0	-0.0	-0.0	111016.515625	-3879.086669921875	-3747.98583984375
0.0035	-0.0	-0.0	-0.0	-3.5298638343811035	34.222049713134766	-491.4738464355469	-5.638910293579102	-23.52814674377441	-385.8276977539063	-0.0	-0.0	-0.0	-0.0	-0.0	-0.0	110741.9375	-3648.493896484375	-3674.13916015625
0.004	-0.0	-0.0	-0.0	-3.6875951290130615	34.217716217041016	-491.425048828125	-5.731846332550049	-23.838890075683597	-385.9949951171875	-0.0	-0.0	-0.0	-0.0	-0.0	-0.0	110452.015625	-3861.226318359375	-3674.309326171875
0.0045000000000000005	-0.0	-0.0	-0.0	-3.525965452194214	34.62501525878906	-490.7520446777344	-5.36906099319458	-23.76673126220703	-384.24945068359375	-0.0	-0.0	-0.0	-0.0	-0.0	-0.0	110286.25	-4016.3173828125	-3597.8271484375
0.005	-0.0	-0.0	-0.0	-3.789255142211914	34.84999084472656	-490.3990173339844	-5.06491231918335	-23.45149803161621	-382.6536560058594	-0.0	-0.0	-0.0	-0.0	-0.0	-0.0	109868.484375	-3897.63671875	-3627.167724609375
0.0055	-0.0	-0.0	-0.0	-3.9857354164123535	35.1551513671875	-490.3813781738281	-5.225238800048828	-23.888851165771484	-381.4224853515625	-0.0	-0.0	-0.0	-0.0	-0.0	-0.0	109630.9140625	-3967.5439453125	-3493.12744140625
0.006	-0.0	-0.0	-0.0	-3.6153507232666016	35.03754425048828	-491.6080932617188	-4.5753021240234375	-23.670211791992188	-380.7937622070313	-0.0	-0.0	-0.0	-0.0	-0.0	-0.0	109628.390625	-4200.70703125	-3462.887451171875
0.006500000000000001	-0.0	-0.0	-0.0	-3.803278684616089	35.412784576416016	-490.7528991699219	-4.267211437225342	-23.73021697998047	-380.4275512695313	-0.0	-0.0	-0.0	-0.0	-0.0	-0.0	109027.3515625	-4465.70751953125	-3269.06591796875
0.007	-0.0	-0.0	-0.0	-3.1596477031707764	35.74617004394531	-492.3522033691406	-3.819260597229004	-23.45174598693848	-379.6931457519531	-0.0	-0.0	-0.0	-0.0	-0.0	-0.0	108921.1953125	-4716.5126953125	-3154.631591796875
0.0075	-0.0	-0.0	-0.0	-3.578355073928833	35.73136901855469	-492.8724365234375	-3.599956750869751	-23.40524673461914	-380.0421447753906	-0.0	-0.0	-0.0	-0.0	-0.0	-0.0	108574.734375	-4958.34521484375	-3187.3525390625
0.008	-0.0	-0.0	-0.0	-3.636057138442993	36.05069351196289	-492.7062683105469	-2.880635499954224	-23.14518928527832	-377.9857482910156	-0.0	-0.0	-0.0	-0.0	-0.0	-0.0	108593.6328125	-5240.60693359375	-2761.73779296875
0.0085	-0.0	-0.0	-0.0	-3.353247880935669	35.741294860839844	-495.511474609375	-1.9465903043746948	-23.40524673461914	-377.966552734375	-0.0	-0.0	-0.0	-0.0	-0.0	-0.0	108479.6796875	-5418.34228515625	-2724.120361328125
0.009000000000000001	-0.0	-0.0	-0.0	-3.3427345752716064	35.819793701171875	-495.0553894042969	-1.5183433294296265	-23.062175750732425	-378.6650390625	-0.0	-0.0	-0.0	-0.0	-0.0	-0.0	108488.5234375	-5606.44287109375	-2336.42236328125
0.0095	-0.0	-0.0	-0.0	-3.116897821426392	36.13418197631836	-493.5148315429688	-0.8142368793487549	-22.78699493408203	-377.967041015625	-0.0	-0.0	-0.0	-0.0	-0.0	-0.0	108635.7734375	-6142.630859375	-2274.783447265625
0.01	-0.0	-0.0	-0.0	-3.1223678588867188	35.85556411743164	-496.7585754394531	-0.4179724156856537	-22.97431945800781	-379.9403076171875	-0.0	-0.0	-0.0	-0.0	-0.0	-0.0	108923.484375	-6345.8447265625	-2220.587890625
0.0105	-0.0	-0.0	-0.0	-3.188891887664795	35.66349411010742	-497.0670776367188	-0.1248456537723541	-22.43370819091797	-380.0838928222656	-0.0	-0.0	-0.0	-0.0	-0.0	-0.0	109048.6640625	-6576.47216796875	-2169.42919921875
0.011	-0.0	-0.0	-0.0	-3.3483054637908936	35.741294860839844	-498.4789123535156	0.3963833749294281	-22.64610481262207	-381.1100769042969	-0.0	-0.0	-0.0	-0.0	-0.0	-0.0	109615.890625	-6582.162109375	-1909.616943359375
0.0115	-0.0	-0.0	-0.0	-3.0390641689300537	35.19470977783203	-497.3007507324219	0.6624737977981567	-22.257064819335938	-381.2960815429688	-0.0	-0.0	-0.0	-0.0	-0.0	-0.0	109813.6640625	-6672.66943359375	-1945.310546875
0.012	-0.0	-0.0	-0.0	-3.027099847793579	35.0343017578125	-498.3369140625	1.0586652755737305	-22.00377655029297	-383.5776672363281	-0.0	-0.0	-0.0	-0.0	-0.0	-0.0	109968.7890625	-6592.01025390625	-1932.99853515625
0.0125	-0.0	-0.0	-0.0	-3.265446424484253	35.40327835083008	-500.2671508789063	0.9165103435516356	-22.20992660522461	-384.2766723632813	-0.0	-0.0	-0.0	-0.0	-0.0	-0.0	110469.3984375	-6766.365234375	-1855.991943359375
0.013000000000000001	-0.0	-0.0	-0.0	-3.4252161979675293	34.98055648803711	-498.0085144042969	0.9697542190551758	-21.93888282775879	-384.01904296875	-0.0	-0.0	-0.0	-0.0	-0.0	-0.0	110414.546875	-6654.986328125	-2006.1915283203125
0.0135	-0.0	-0.0	-0.0	-3.28796911239624	34.90415954589844	-498.4500427246094	0.6334042549133301	-22.345386505126957	-385.7880859375	-0.0	-0.0	-0.0	-0.0	-0.0	-0.0	110803.6875	-6529.74267578125	-2152.751220703125
0.014	-0.0	-0.0	-0.0	-3.555431842803955	34.63689422607422	-497.6562194824219	0.361141562461853	-22.2980899810791	-384.8146667480469	-0.0	-0.0	-0.0	-0.0	-0.0	-0.0	110602.3671875	-6773.630859375	-2232.31591796875
0.0145	-0.0	-0.0	-0.0	-3.616331815719605	34.27394485473633	-497.9837036132813	-0.1710060685873031	-22.6385440826416	-385.999755859375	-0.0	-0.0	-0.0	-0.0	-0.0	-0.0	110824.8984375	-6516.06298828125	-2224.23876953125
0.015	-0.0	-0.0	-0.0	-3.575183391571045	33.80809783935547	-496.8680725097656	0.0821453332901001	-23.19424819946289	-385.81256103515625	-0.0	-0.0	-0.0	-0.0	-0.0	-0.0	110815.328125	-6238.23388671875	-2319.6279296875
0.0155	-0.0	-0.0	-0.0	-4.186047554016113	33.98614883422852	-494.9952392578125	-0.190718725323677	-23.357776641845703	-386.4017028808594	-0.0	-0.0	-0.0	-0.0	-0.0	-0.0	110621.7890625	-6074.2958984375	-2397.3583984375
0.016	-0.0	-0.0	-0.0	-3.925262451171875	34.0548095703125	-494.99554443359375	-0.2389382123947143	-23.588659286499023	-386.6987915039063	-0.0	-0.0	-0.0	-0.0	-0.0	-0.0	110827.6484375	-5772.44482421875	-2450.03466796875
0.0165	-0.0	-0.0	-0.0	-3.9378509521484375	33.595054626464844	-494.6989440917969	-0.2661323547363281	-24.030384063720703	-386.3226623535156	-0.0	-0.0	-0.0	-0.0	-0.0	-0.0	110831.484375	-5518.87255859375	-2445.482421875
0.017	-0.0	-0.0	-0.0	-3.664828777313232	33.19028854370117	-493.3638610839844	-0.0747149288654327	-24.21407699584961	-386.4832763671875	-0.0	-0.0	-0.0	-0.0	-0.0	-0.0	110907.8046875	-5495.0869140625	-2481.980712890625
0.0175	-0.0	-0.0	-0.0	-3.79512095451355	32.61438751220703	-492.9809875488281	-0.5730461478233337	-23.717931747436523	-386.45458984375	-0.0	-0.0	-0.0	-0.0	-0.0	-0.0	110971.4453125	-5285.3720703125	-2514.23828125
0.018000000000000002	-0.0	-0.0	-0.0	-3.795162916183472	32.23920440673828	-490.3756408691406	-0.3883517384529114	-24.126218795776367	-385.0573425292969	-0.0	-0.0	-0.0	-0.0	-0.0	-0.0	110698.5859375	-5297.48779296875	-2458.84716796875
0.0185	-0.0	-0.0	-0.0	-3.8693320751190186	32.191162109375	-489.8904418945313	-0.0333331003785133	-24.33628273010254	-385.6968688964844	-0.0	-0.0	-0.0	-0.0	-0.0	-0.0	110806.90625	-5260.53955078125	-2484.380859375
0.019	-0.0	-0.0	-0.0	-3.8029978275299072	31.745811462402344	-486.4901428222656	-0.0074981525540351	-24.295928955078125	-386.250244140625	-0.0	-0.0	-0.0	-0.0	-0.0	-0.0	110552.046875	-5121.013671875	-2354.650146484375
0.0195	-0.0	-0.0	-0.0	-3.8360519409179688	31.042499542236328	-487.03515625	0.3066966533660888	-24.656848907470703	-388.2969055175781	-0.0	-0.0	-0.0	-0.0	-0.0	-0.0	110705.5625	-5056.77001953125	-2303.739990234375
0.02	-0.0	-0.0	-0.0	-4.1770219802856445	30.352867126464844	-485.1749877929688	0.3239146173000335	-24.737770080566406	-386.7006530761719	-0.0	-0.0	-0.0	-0.0	-0.0	-0.0	111039.09375	-5162.32861328125	-2257.934326171875
0.0205	-0.0	-0.0	-0.0	-4.363295078277588	29.988374710083008	-485.2355346679688	0.4357384741306305	-24.979475021362305	-388.6057739257813	-0.0	-0.0	-0.0	-0.0	-0.0	-0.0	111294.6796875	-4933.05810546875	-2357.792724609375
0.021	-0.0	-0.0	-0.0	-4.64708423614502	29.315771102905277	-484.1136474609375	0.4918755888938904	-25.219789505004883	-389.2728271484375	-0.0	-0.0	-0.0	-0.0	-0.0	-0.0	111007.609375	-5067.33544921875	-2349.51513671875
0.021500000000000002	-0.0	-0.0	-0.0	-4.500986576080322	28.7642765045166	-481.41705322265625	0.5322647094726562	-25.4366455078125	-390.5419921875	-0.0	-0.0	-0.0	-0.0	-0.0	-0.0	111542.8515625	-4837.14599609375	-2247.068603515625
0.022	-0.0	-0.0	-0.0	-4.761649131774902	28.545379638671875	-480.9373474121094	0.3466765880584717	-25.38842010498047	-391.6217651367188	-0.0	-0.0	-0.0	-0.0	-0.0	-0.0	111973.1640625	-4899.8681640625	-2346.930419921875
0.0225	-0.0	-0.0	-0.0	-5.004279136657715	28.893123626708984	-479.7781372070313	0.1372079849243164	-25.52496719360352	-391.7155456542969	-0.0	-0.0	-0.0	-0.0	-0.0	-0.0	112400.78125	-4790.248046875	-2336.39794921875
0.023	-0.0	-0.0	-0.0	-4.590020656585693	28.42967796325684	-480.54107666015625	-0.0718436688184738	-24.97824478149414	-393.61865234375	-0.0	-0.0	-0.0	-0.0	-0.0	-0.0	112437.9140625	-4886.0146484375	-2457.9091796875
0.0235	-0.0	-0.0	-0.0	-4.402832508087158	28.64234733581543	-478.8774719238281	-0.1373246163129806	-25.024002075195312	-394.9575500488281	-0.0	-0.0	-0.0	-0.0	-0.0	-0.0	113035.5625	-4767.447265625	-2465.72119140625
0.024	-0.0	-0.0	-0.0	-4.750572204589844	28.673385620117188	-477.5880126953125	-0.0086668357253074	-25.299848556518555	-395.17138671875	-0.0	-0.0	-0.0	-0.0	-0.0	-0.0	113423.7265625	-4792.255859375	-2613.969482421875
0.0245	-0.0	-0.0	-0.0	-4.799379825592041	29.01643943786621	-475.7333984375	-0.6521550416946411	-25.04357147216797	-397.0735473632813	-0.0	-0.0	-0.0	-0.0	-0.0	-0.0	113655.5	-4716.84765625	-2598.0224609375
0.025	-0.0	-0.0	-0.0	-4.884665966033936	29.123748779296875	-476.2811279296875	-0.660897433757782	-25.008298873901367	-398.1899719238281	-0.0	-0.0	-0.0	-0.0	-0.0	-0.0	113829.1953125	-4827.6865234375	-2626.15283203125
0.025500000000000002	-0.0	-0.0	-0.0	-4.8173675537109375	29.13642120361328	-475.10009765625	-0.8961247205734253	-25.29967498779297	-399.080322265625	-0.0	-0.0	-0.0	-0.0	-0.0	-0.0	114508.921875	-4666.04833984375	-2571.495361328125
0.026000000000000002	-0.0	-0.0	-0.0	-4.638946533203125	29.45294570922852	-473.809326171875	-0.6914860010147095	-25.6257381439209	-401.52435302734375	-0.0	-0.0	-0.0	-0.0	-0.0	-0.0	114769.625	-4511.72021484375	-2706.42822265625
0.0265	-0.0	-0.0	-0.0	-4.789078712463379	29.007234573364254	-473.2238159179688	-1.0645294189453125	-25.45786476135254	-400.8260498046875	-0.0	-0.0	-0.0	-0.0	-0.0	-0.0	114919.0546875	-4546.61572265625	-2706.65087890625
0.027	-0.0	-0.0	-0.0	-4.9559736251831055	29.253915786743164	-471.9681091308594	-1.23258376121521	-25.536487579345703	-403.3069763183594	-0.0	-0.0	-0.0	-0.0	-0.0	-0.0	115277.9140625	-4665.3818359375	-2762.986083984375
